<?xml version="1.0" standalone="no"?>
<!DOCTYPE svg PUBLIC "-//W3C//DTD SVG 20010904//EN"
 "http://www.w3.org/TR/2001/REC-SVG-20010904/DTD/svg10.dtd">
<svg version="1.0" xmlns="http://www.w3.org/2000/svg"
 width="225.000000pt" height="225.000000pt" viewBox="0 0 225.000000 225.000000"
 preserveAspectRatio="xMidYMid meet">
<metadata>
Created by potrace 1.11, written by Peter Selinger 2001-2013
</metadata>
<g transform="translate(0.000000,225.000000) scale(0.100000,-0.100000)"
fill="#000000" stroke="none">
<path d="M608 2004 c-130 -31 -238 -110 -344 -250 -160 -213 -257 -502 -257
-764 0 -152 17 -229 79 -356 90 -185 265 -326 474 -380 75 -20 240 -23 312 -5
73 17 149 48 201 81 l48 30 -53 43 c-167 136 -258 342 -259 585 0 252 103 559
257 761 l56 73 -46 47 c-123 125 -300 176 -468 135z"/>
<path d="M1503 1213 c15 -2 39 -2 55 0 15 2 2 4 -28 4 -30 0 -43 -2 -27 -4z"/>
<path d="M1438 1203 c6 -2 18 -2 25 0 6 3 1 5 -13 5 -14 0 -19 -2 -12 -5z"/>
<path d="M1610 1200 c34 -11 60 -11 35 0 -11 5 -29 8 -40 8 -16 0 -15 -2 5 -8z"/>
<path d="M1365 1180 c-22 -11 -56 -34 -75 -51 -33 -29 -31 -29 15 4 28 19 66
42 85 50 19 9 31 16 25 16 -5 1 -28 -8 -50 -19z"/>
<path d="M1697 1156 c60 -68 78 -121 78 -231 0 -118 -19 -168 -97 -251 -79
-84 -193 -124 -311 -110 -52 7 -60 12 -103 59 -26 29 -42 43 -36 32 21 -40 98
-105 157 -132 50 -23 73 -27 140 -27 200 1 351 141 363 335 8 136 -44 248
-148 322 -66 46 -81 47 -43 3z"/>
<path d="M1238 1073 c-18 -21 -48 -78 -48 -90 1 -4 10 10 22 32 11 22 27 48
36 58 8 9 13 17 10 17 -3 0 -12 -8 -20 -17z"/>
<path d="M1176 948 c-3 -13 -5 -36 -5 -53 1 -21 4 -15 10 20 8 52 6 72 -5 33z"/>
<path d="M1173 815 c0 -22 2 -30 4 -17 2 12 2 30 0 40 -3 9 -5 -1 -4 -23z"/>
<path d="M1181 762 c-1 -15 26 -82 33 -82 3 0 -1 15 -8 33 -7 17 -16 39 -19
47 -3 10 -6 10 -6 2z"/>
</g>
</svg>
